<svg xmlns="http://www.w3.org/2000/svg" style="display: none;">
  <symbol id="constraint-subject-object" viewBox="0 0 24 24">
    <circle cx="8" cy="12" r="5" fill="none" stroke="currentColor" stroke-width="2"/>
    <circle cx="16" cy="12" r="5" fill="none" stroke="currentColor" stroke-width="2"/>
    <path d="M10.5,9.5 L13.5,9.5" stroke="currentColor" stroke-width="2" stroke-dasharray="2 1"/>
    <path d="M10.5,12 L13.5,12" stroke="currentColor" stroke-width="2"/>
    <path d="M10.5,14.5 L13.5,14.5" stroke="currentColor" stroke-width="2" stroke-dasharray="2 1"/>
  </symbol>
  
  <symbol id="constraint-linear-time" viewBox="0 0 24 24">
    <path d="M4,12 L20,12" stroke="currentColor" stroke-width="2"/>
    <circle cx="8" cy="12" r="2" fill="currentColor"/>
    <circle cx="16" cy="12" r="2" fill="currentColor"/>
    <path d="M8,8 L8,5" stroke="currentColor" stroke-width="2"/>
    <path d="M16,16 L16,19" stroke="currentColor" stroke-width="2"/>
    <path d="M12,16 C16,16 16,8 20,8" stroke="currentColor" stroke-width="2" stroke-dasharray="2 1" fill="none"/>
  </symbol>
  
  <symbol id="constraint-causality" viewBox="0 0 24 24">
    <path d="M5,12 L19,12" stroke="currentColor" stroke-width="2"/>
    <path d="M15,8 L19,12 L15,16" fill="none" stroke="currentColor" stroke-width="2"/>
    <path d="M12,6 C8,6 8,18 4,18" stroke="currentColor" stroke-width="2" stroke-dasharray="2 1" fill="none"/>
  </symbol>
  
  <symbol id="constraint-binary-logic" viewBox="0 0 24 24">
    <circle cx="8" cy="8" r="4" fill="none" stroke="currentColor" stroke-width="2"/>
    <circle cx="16" cy="16" r="4" fill="none" stroke="currentColor" stroke-width="2"/>
    <path d="M8,8 L16,16" stroke="currentColor" stroke-width="2"/>
    <path d="M12,6 L12,18" stroke="currentColor" stroke-width="2" stroke-dasharray="2 1"/>
    <path d="M6,12 L18,12" stroke="currentColor" stroke-width="2" stroke-dasharray="2 1"/>
  </symbol>
  
  <symbol id="constraint-perspectives" viewBox="0 0 24 24">
    <circle cx="12" cy="12" r="6" fill="none" stroke="currentColor" stroke-width="2"/>
    <path d="M12,6 L12,18" stroke="currentColor" stroke-width="2"/>
    <path d="M6,12 L18,12" stroke="currentColor" stroke-width="2"/>
    <path d="M8,8 L16,16" stroke="currentColor" stroke-width="2"/>
    <path d="M16,8 L8,16" stroke="currentColor" stroke-width="2"/>
  </symbol>
</svg>