<svg xmlns="http://www.w3.org/2000/svg" style="display: none;">
  <symbol id="icon-entity" viewBox="0 0 24 24">
    <circle cx="12" cy="12" r="10" fill="none" stroke="currentColor" stroke-width="2"/>
  </symbol>
  
  <symbol id="icon-relation" viewBox="0 0 24 24">
    <path d="M4,12 L20,12" stroke="currentColor" stroke-width="2"/>
    <path d="M16,8 L20,12 L16,16" fill="none" stroke="currentColor" stroke-width="2"/>
  </symbol>
  
  <symbol id="icon-property" viewBox="0 0 24 24">
    <rect x="4" y="4" width="16" height="16" fill="none" stroke="currentColor" stroke-width="2"/>
  </symbol>
  
  <symbol id="icon-process" viewBox="0 0 24 24">
    <path d="M12,4 L12,20" stroke="currentColor" stroke-width="2"/>
    <path d="M4,12 L20,12" stroke="currentColor" stroke-width="2"/>
    <path d="M17,7 L7,17" stroke="currentColor" stroke-width="2"/>
    <path d="M7,7 L17,17" stroke="currentColor" stroke-width="2"/>
  </symbol>
  
  <symbol id="icon-context" viewBox="0 0 24 24">
    <circle cx="12" cy="12" r="10" fill="none" stroke="currentColor" stroke-width="2" stroke-dasharray="4 2"/>
  </symbol>
  
  <symbol id="icon-concept" viewBox="0 0 24 24">
    <circle cx="12" cy="12" r="5" fill="none" stroke="currentColor" stroke-width="2"/>
    <circle cx="12" cy="12" r="10" fill="none" stroke="currentColor" stroke-width="2" stroke-dasharray="2 2"/>
  </symbol>
  
  <symbol id="icon-generate" viewBox="0 0 24 24">
    <path d="M12,2 L12,22" stroke="currentColor" stroke-width="2"/>
    <path d="M2,12 L22,12" stroke="currentColor" stroke-width="2"/>
    <path d="M17,7 L22,12 L17,17" fill="none" stroke="currentColor" stroke-width="2"/>
    <path d="M7,7 L2,12 L7,17" fill="none" stroke="currentColor" stroke-width="2"/>
  </symbol>
  
  <symbol id="icon-save" viewBox="0 0 24 24">
    <path d="M19,21 L5,21 C3.89543,21 3,20.1046 3,19 L3,5 C3,3.89543 3.89543,3 5,3 L16,3 L21,8 L21,19 C21,20.1046 20.1046,21 19,21 Z" fill="none" stroke="currentColor" stroke-width="2"/>
    <path d="M7,3 L7,8 L15,8 L15,3" stroke="currentColor" stroke-width="2"/>
    <path d="M8,13 L16,13" stroke="currentColor" stroke-width="2"/>
    <path d="M8,17 L16,17" stroke="currentColor" stroke-width="2"/>
  </symbol>
  
  <symbol id="icon-share" viewBox="0 0 24 24">
    <circle cx="18" cy="5" r="3" fill="none" stroke="currentColor" stroke-width="2"/>
    <circle cx="6" cy="12" r="3" fill="none" stroke="currentColor" stroke-width="2"/>
    <circle cx="18" cy="19" r="3" fill="none" stroke="currentColor" stroke-width="2"/>
    <path d="M9,10 L15,7" stroke="currentColor" stroke-width="2"/>
    <path d="M9,14 L15,17" stroke="currentColor" stroke-width="2"/>
  </symbol>
  
  <symbol id="icon-visualize" viewBox="0 0 24 24">
    <path d="M12,4 L19,8 L19,16 L12,20 L5,16 L5,8 L12,4 Z" fill="none" stroke="currentColor" stroke-width="2"/>
    <path d="M12,4 L12,20" stroke="currentColor" stroke-width="2"/>
    <path d="M5,8 L19,16" stroke="currentColor" stroke-width="2"/>
    <path d="M19,8 L5,16" stroke="currentColor" stroke-width="2"/>
  </symbol>
  
  <symbol id="icon-community" viewBox="0 0 24 24">
    <circle cx="9" cy="8" r="4" fill="none" stroke="currentColor" stroke-width="2"/>
    <path d="M3,21 L3,19 C3,15.6863 5.68629,13 9,13 C12.3137,13 15,15.6863 15,19 L15,21" stroke="currentColor" stroke-width="2"/>
    <circle cx="17" cy="10" r="3" fill="none" stroke="currentColor" stroke-width="2"/>
    <path d="M13,21 L13,19 C13,17.6154 14.2,16.4231 16,16.0769" stroke="currentColor" stroke-width="2"/>
  </symbol>
  
  <symbol id="icon-apply" viewBox="0 0 24 24">
    <path d="M12,5 L19,12 L12,19" fill="none" stroke="currentColor" stroke-width="2"/>
    <path d="M19,12 L5,12" stroke="currentColor" stroke-width="2"/>
  </symbol>
  
  <symbol id="icon-unlock" viewBox="0 0 24 24">
    <rect x="5" y="11" width="14" height="10" rx="2" fill="none" stroke="currentColor" stroke-width="2"/>
    <path d="M12,15 L12,17" stroke="currentColor" stroke-width="2"/>
    <path d="M8,11 L8,7 C8,4.23858 10.2386,2 13,2 C15.7614,2 18,4.23858 18,7" stroke="currentColor" stroke-width="2" stroke-linecap="round"/>
  </symbol>
  
  <symbol id="icon-add" viewBox="0 0 24 24">
    <path d="M12,4 L12,20" stroke="currentColor" stroke-width="2"/>
    <path d="M4,12 L20,12" stroke="currentColor" stroke-width="2"/>
  </symbol>
  
  <symbol id="icon-close" viewBox="0 0 24 24">
    <path d="M6,6 L18,18" stroke="currentColor" stroke-width="2"/>
    <path d="M6,18 L18,6" stroke="currentColor" stroke-width="2"/>
  </symbol>
  
  <symbol id="icon-check" viewBox="0 0 24 24">
    <path d="M4,12 L10,18 L20,6" stroke="currentColor" stroke-width="2" fill="none"/>
  </symbol>
  
  <symbol id="icon-metrics" viewBox="0 0 24 24">
    <path d="M3,5 L21,5" stroke="currentColor" stroke-width="2"/>
    <path d="M3,12 L21,12" stroke="currentColor" stroke-width="2"/>
    <path d="M3,19 L21,19" stroke="currentColor" stroke-width="2"/>
    <circle cx="8" cy="5" r="2" fill="currentColor"/>
    <circle cx="15" cy="12" r="2" fill="currentColor"/>
    <circle cx="10" cy="19" r="2" fill="currentColor"/>
  </symbol>
</svg>